#!OML:ASF E:\Steps\Project 1\Capture day 1\Session 2\Subject.ASF
:FULLY-SPECIFIED
:DEGREES
383
root 3.90572 18.9402 17.4865 -147.754 -3.95738 175.846
lowerback -17.1322 -2.97405 -9.255
upperback 3.66853 -1.84835 -1.71339
thorax 14.136 -1.59074 2.748
lowerneck -1.35721 0.183434 0.289096
upperneck 12.9099 -0.566863 1.53644
head 4.4999 -0.432064 0.423498
rclavicle 3.97569e-016 -7.15625e-015
rhumerus -33.63 -9.27871 -80.0868
rradius 45.5762
rwrist -6.46622
rhand -8.4869 -51.4247
rfingers 7.12502
rthumb 17.4403 -80.6623
lclavicle 3.97569e-016 -7.15625e-015
lhumerus -19.3117 -9.67739 79.5262
lradius 46.422
lwrist 3.67542
lhand -24.1371 -12.9809
lfingers 7.12502
lthumb 2.34496 16.986
rfemur -48.0686 11.1825 14.3051
rtibia 33.5206
rfoot -22.2546 -5.41515
rtoes -26.7085
lfemur -38.5056 -3.92604 -24.6906
ltibia 16.2682
lfoot -4.65232 -3.27311
ltoes -15.7171
384
root 3.86268 18.9422 17.4625 -147.78 -3.90561 175.912
lowerback -17.0784 -2.96718 -9.0105
upperback 3.45964 -1.91277 -1.66047
thorax 13.8528 -1.58585 2.66325
lowerneck -1.2896 0.208047 0.173993
upperneck 13.0687 -0.550862 1.5407
head 4.54487 -0.437013 0.445761
rclavicle -1.27222e-014 -2.8625e-014
rhumerus -33.791 -9.17728 -79.9571
rradius 45.4809
rwrist -6.43482
rhand -8.94114 -50.9628
rfingers 7.12502
rthumb 17.0031 -80.2386
lclavicle -1.27222e-014 -2.8625e-014
lhumerus -18.6407 -9.86882 79.8113
lradius 44.8588
lwrist 3.37808
lhand -24.1245 -13.2855
lfingers 7.12502
lthumb 2.35715 16.6812
rfemur -47.5347 11.4069 14.3361
rtibia 32.3942
rfoot -22.0831 -5.58598
rtoes -24.7188
lfemur -38.2332 -3.70749 -24.923
ltibia 16.0386
lfoot -4.63195 -3.4545
ltoes -15.4425
385
root 3.81365 18.9412 17.4364 -147.791 -3.8764 176.054
lowerback -17.2513 -2.92603 -8.58039
upperback 3.39824 -1.93199 -1.65166
thorax 13.8645 -1.55593 2.42378
lowerneck -1.36152 0.163425 0.114908
upperneck 13.1858 -0.650966 1.77395
head 4.6051 -0.481781 0.530721
rclavicle -4.05521e-014 -7.07673e-014
rhumerus -33.6572 -9.28696 -79.9338
rradius 45.2879
rwrist -6.22521
rhand -9.29394 -51.044
rfingers 7.12502
rthumb 16.6635 -80.3487
lclavicle -4.05521e-014 -7.07673e-014
lhumerus -18.5695 -9.99575 80.0042
lradius 44.1715
lwrist 3.06337
lhand -23.876 -13.2669
lfingers 7.12502
lthumb 2.59711 16.6971
rfemur -46.9906 11.647 14.4089
rtibia 31.3105
rfoot -21.7033 -5.475
rtoes -21.8306
lfemur -37.9035 -3.89099 -24.8973
ltibia 15.656
lfoot -4.64544 -3.16833
ltoes -16.302
386
root 3.77004 18.94 17.4062 -147.928 -3.87778 176.162
lowerback -17.5745 -2.90884 -8.28865
upperback 3.52726 -1.92959 -1.61195
thorax 14.1988 -1.54176 2.28968
lowerneck -1.31814 0.149578 0.00871785
upperneck 12.8933 -0.659727 1.99858
head 4.49107 -0.473663 0.62479
rclavicle 1.63003e-014 -3.49861e-014
rhumerus -33.3716 -9.58056 -79.9048
rradius 45.2355
rwrist -6.00151
rhand -9.51217 -51.2771
rfingers 7.12502
rthumb 16.4534 -80.5994
lclavicle 1.63003e-014 -3.49861e-014
lhumerus -18.8248 -10.0517 80.2647
lradius 44.029
lwrist 2.56724
lhand -23.8025 -13.1809
lfingers 7.12502
lthumb 2.66805 16.7822
rfemur -46.1636 11.7734 14.552
rtibia 30.1601
rfoot -21.2182 -5.2973
rtoes -19.3508
lfemur -37.4443 -3.98729 -24.9193
ltibia 15.3318
lfoot -4.6522 -2.95844
ltoes -17.4417
387
root 3.73843 18.9446 17.3719 -147.993 -3.67027 175.787
lowerback -17.5476 -2.97583 -8.70792
upperback 3.33146 -1.9424 -1.66462
thorax 13.9708 -1.57246 2.46876
lowerneck -1.10103 0.137435 0.0290964
upperneck 13.0882 -0.707141 1.94096
head 4.51931 -0.511631 0.599395
rclavicle -1.23246e-014 -1.59028e-014
rhumerus -33.6688 -9.64281 -79.79
rradius 45.1975
rwrist -5.9065
rhand -9.70475 -51.3905
rfingers 7.12502
rthumb 16.268 -80.728
lclavicle -1.23246e-014 -1.59028e-014
lhumerus -18.6703 -10.1986 80.5653
lradius 42.952
lwrist 2.06938
lhand -23.6823 -13.4101
lfingers 7.12502
lthumb 2.78421 16.5515
rfemur -45.4808 11.7279 14.0641
rtibia 29.0942
rfoot -20.6644 -5.48908
rtoes -18.9169
lfemur -37.0082 -4.04917 -25.5301
ltibia 15.0209
lfoot -4.57035 -2.94118
ltoes -16.3605
388
root 3.7057 18.9424 17.3429 -147.979 -3.3445 175.678
lowerback -17.8043 -2.91231 -8.85335
upperback 3.09152 -1.80904 -1.72966
thorax 13.8285 -1.51207 2.51703
lowerneck -0.766825 0.054154 0.348826
upperneck 13.5251 -0.879218 1.6722
head 4.61192 -0.617713 0.444068
rclavicle 1.31198e-014 3.97569e-015
rhumerus -34.0588 -9.73251 -79.6981
rradius 45.0348
rwrist -5.85651
rhand -9.74205 -51.3768
rfingers 7.12502
rthumb 16.232 -80.7173
lclavicle 1.31198e-014 3.97569e-015
lhumerus -19.6684 -10.2261 80.8723
lradius 42.9586
lwrist 1.6155
lhand -23.3905 -13.7573
lfingers 7.12502
lthumb 3.06599 16.2004
rfemur -45.0166 11.9421 13.7702
rtibia 28.1169
rfoot -19.9343 -5.56557
rtoes -18.1284
lfemur -36.7256 -3.83716 -25.9137
ltibia 14.7387
lfoot -4.38815 -3.2831
ltoes -11.6919
389
root 3.67002 18.9422 17.3169 -148.008 -3.05947 175.768
lowerback -18.0042 -2.84696 -8.67353
upperback 3.20993 -1.72813 -1.73526
thorax 14.0704 -1.46851 2.42347
lowerneck -1.32576 0.00899376 0.506489
upperneck 13.434 -0.879368 1.44915
head 4.6879 -0.600973 0.340703
rclavicle -1.74931e-014 -4.05521e-014
rhumerus -33.4988 -9.9011 -79.7591
rradius 44.7394
rwrist -5.68256
rhand -9.52107 -51.0473
rfingers 7.12502
rthumb 16.4448 -80.3703
lclavicle -1.74931e-014 -4.05521e-014
lhumerus -19.1514 -10.394 80.913
lradius 42.3029
lwrist 1.3827
lhand -23.7946 -13.9963
lfingers 7.12502
lthumb 2.67574 15.9666
rfemur -44.4634 12.2754 13.6166
rtibia 27.0858
rfoot -19.0026 -5.09163
rtoes -13.0296
lfemur -36.4572 -3.63414 -26.0376
ltibia 14.5244
lfoot -4.39025 -3.72802
ltoes -7.79404
390
root 3.62924 18.9384 17.2895 -147.958 -2.97038 175.866
lowerback -18.0252 -2.74279 -8.3199
upperback 3.02419 -1.67241 -1.79398
thorax 13.8374 -1.40046 2.18268
lowerneck -1.47625 0.0448262 0.745978
upperneck 13.6595 -0.857219 1.36825
head 4.8005 -0.585987 0.271018
rclavicle -7.55382e-015 -4.21423e-014
rhumerus -33.6485 -10.1535 -79.7548
rradius 44.6373
rwrist -5.50465
rhand -9.09758 -50.6998
rfingers 7.12502
rthumb 16.8525 -79.9886
lclavicle -7.55382e-015 -4.21423e-014
lhumerus -19.086 -10.6529 80.9631
lradius 41.7635
lwrist 1.72729
lhand -23.4015 -14.3195
lfingers 7.12502
lthumb 3.05537 15.6383
rfemur -43.9662 12.3918 13.4529
rtibia 26.0783
rfoot -18.3755 -4.79397
rtoes -9.53417
lfemur -36.2914 -3.69632 -26.0626
ltibia 14.3613
lfoot -4.57881 -3.90843
ltoes -8.26873
391
root 3.59816 18.9385 17.2599 -148.064 -2.89176 175.826
lowerback -18.619 -2.96438 -8.54788
upperback 3.02275 -1.87291 -1.52151
thorax 14.2357 -1.53021 2.53788
lowerneck -0.737948 -0.621653 0.214107
upperneck 13.3971 -0.298593 1.22052
head 4.55103 0.192131 0.383266
rclavicle -1.55052e-014 1.03368e-014
rhumerus -33.5894 -9.53625 -79.5033
rradius 44.513
rwrist -5.51383
rhand -8.90854 -51.0612
rfingers 7.12502
rthumb 17.0345 -80.3344
lclavicle -1.55052e-014 1.03368e-014
lhumerus -19.3566 -9.99033 81.4356
lradius 41.3687
lwrist 1.53365
lhand -23.4471 -14.3587
lfingers 7.12502
lthumb 3.0113 15.5998
rfemur -43.3485 12.6204 13.126
rtibia 25.2671
rfoot -18.5585 -5.5759
rtoes -13.8684
lfemur -35.949 -3.55152 -26.2968
ltibia 14.1819
lfoot -4.59392 -3.9541
ltoes -12.0187
392
root 3.55291 18.9393 17.244 -148.17 -2.98312 175.932
lowerback -18.4453 -2.90584 -8.04153
upperback 2.87608 -1.93729 -1.51246
thorax 13.9402 -1.50576 2.25616
lowerneck -0.672988 -0.660177 0.170325
upperneck 13.4277 -0.344541 1.24493
head 4.54991 0.171267 0.397612
rclavicle -1.47101e-014 -3.33958e-014
rhumerus -33.7409 -9.58011 -79.4681
rradius 44.4018
rwrist -5.49582
rhand -9.03325 -51.2557
rfingers 7.12502
rthumb 16.9144 -80.5391
lclavicle -1.47101e-014 -3.33958e-014
lhumerus -19.6503 -9.93747 81.639
lradius 40.9987
lwrist 1.33676
lhand -23.5466 -14.2861
lfingers 7.12502
lthumb 2.91528 15.6737
rfemur -42.7555 12.4872 13.1736
rtibia 24.7334
rfoot -18.7786 -6.02141
rtoes -18.4543
lfemur -35.7069 -3.39107 -26.4727
ltibia 14.1349
lfoot -4.54235 -3.93221
ltoes -16.1949
393
root 3.53483 18.9352 17.2101 -148.265 -2.74652 176.09
lowerback -18.4675 -2.73898 -7.97318
upperback 2.95042 -1.71664 -1.54908
thorax 14.0126 -1.40033 2.24175
lowerneck -1.39472 -0.0477148 0.569897
upperneck 13.5161 -0.939723 1.2164
head 4.73051 -0.640699 0.247379
rclavicle -1.31198e-014 0
rhumerus -33.458 -10.027 -79.5695
rradius 44.1884
rwrist -5.51647
rhand -9.04432 -50.886
rfingers 7.12502
rthumb 16.9038 -80.1704
lclavicle -1.31198e-014 0
lhumerus -19.4043 -10.1731 81.6794
lradius 40.5989
lwrist 1.30524
lhand -23.6667 -14.3408
lfingers 7.12502
lthumb 2.79927 15.6206
rfemur -42.3214 12.8833 13.0327
rtibia 24.3367
rfoot -19.1196 -6.57154
rtoes -21.0366
lfemur -35.4674 -2.92293 -26.5022
ltibia 14.0232
lfoot -4.55409 -3.92752
ltoes -17.56
394
root 3.49561 18.9384 17.1836 -148.421 -2.68389 175.952
lowerback -18.3778 -2.78885 -7.91942
upperback 2.5938 -1.83071 -1.58507
thorax 13.5459 -1.43028 2.15104
lowerneck -0.668917 -1.03196 0.66182
upperneck 13.9526 -0.787648 0.938441
head 4.74107 -0.0125901 0.192193
rclavicle -1.31198e-014 -3.81667e-014
rhumerus -34.1203 -9.76839 -79.5129
rradius 44.0082
rwrist -5.5382
rhand -8.8492 -50.7063
rfingers 7.12502
rthumb 17.0916 -79.9745
lclavicle -1.31198e-014 -3.81667e-014
lhumerus -20.4083 -10.0815 81.9129
lradius 40.4612
lwrist 1.27751
lhand -23.8897 -14.377
lfingers 7.12502
lthumb 2.5839 15.5871
rfemur -41.5618 12.5081 12.893
rtibia 23.6087
rfoot -19.3925 -6.17335
rtoes -20.725
lfemur -35.0392 -2.87814 -26.9067
ltibia 13.7802
lfoot -4.45422 -4.09987
ltoes -16.3056
395
root 3.46171 18.9406 17.1592 -148.599 -2.5946 175.97
lowerback -18.5283 -2.68609 -7.81929
upperback 2.66527 -1.69086 -1.6207
thorax 13.6989 -1.36121 2.09007
lowerneck -0.631365 -0.0912511 0.768683
upperneck 13.9116 -1.10494 1.20481
head 4.72386 -0.750321 0.200507
rclavicle 5.56597e-015 1.90833e-014
rhumerus -33.9572 -10.1178 -79.5147
rradius 43.729
rwrist -5.439
rhand -8.87582 -50.3722
rfingers 7.12502
rthumb 17.066 -79.6426
lclavicle 5.56597e-015 1.90833e-014
lhumerus -20.4635 -10.155 82.0749
lradius 40.2001
lwrist 1.24202
lhand -23.9618 -14.3376
lfingers 7.12502
lthumb 2.51422 15.6274
rfemur -40.7415 12.249 12.9498
rtibia 22.5944
rfoot -19.3277 -5.56933
rtoes -20.438
lfemur -34.5824 -2.97665 -27.0203
ltibia 13.5316
lfoot -4.48879 -3.94774
ltoes -15.7166
396
root 3.42403 18.9399 17.1522 -148.394 -2.65076 175.995
lowerback -18.8676 -2.57027 -7.49309
upperback 2.93858 -1.54947 -1.68032
thorax 14.1948 -1.28236 1.86271
lowerneck -1.47186 -0.16381 0.978782
upperneck 13.4768 -1.11393 1.2032
head 4.73044 -0.704338 0.162505
rclavicle 1.63003e-014 1.27222e-014
rhumerus -33.061 -10.7281 -79.6555
rradius 43.4946
rwrist -5.36252
rhand -8.92862 -50.3201
rfingers 7.12502
rthumb 17.0151 -79.5949
lclavicle 1.63003e-014 1.27222e-014
lhumerus -19.5188 -10.1632 82.0903
lradius 39.567
lwrist 1.22236
lhand -23.9865 -14.538
lfingers 7.12502
lthumb 2.4904 15.4272
rfemur -40.4834 11.6563 13.0287
rtibia 21.7783
rfoot -19.1995 -5.01592
rtoes -21.9212
lfemur -34.7375 -3.25292 -27.1292
ltibia 13.5806
lfoot -4.62582 -3.81858
ltoes -16.9836
